<svg width="24" height="24" viewBox="0 0 24 24" fill="none" xmlns="http://www.w3.org/2000/svg">
  <path d="M11.9775 1C18.3335 1 23.5 6.18796 23.5 12.5449C23.5 13.831 23.2903 15.0536 22.9121 16.1875C21.9743 15.4445 20.7893 15 19.5 15C18.8276 15 18.1835 15.1209 17.5879 15.3418C18.3745 14.4522 18.828 13.3137 18.8281 12.0283C18.8281 10.8613 18.4466 9.71533 17.7266 8.86133C18.0196 8.09834 17.9751 6.52496 17.6602 5.91895C16.7622 5.80695 15.5261 6.27823 14.8301 6.90723C14.0222 6.66026 13.1232 6.52543 12.0234 6.52539C10.9224 6.52539 10.0229 6.65971 9.16992 6.92871C8.4509 6.2788 7.23777 5.80696 6.33984 5.91895C6.00288 6.5699 5.95808 8.14272 6.25 8.88379C5.576 9.69179 5.17188 10.9053 5.17188 12.0283C5.17204 14.791 7.26091 16.9241 10.2256 17.2842C9.95575 17.5091 9.66391 17.8449 9.28223 18.2256C8.76523 18.7426 8.40573 18.9453 7.84473 18.9453C7.28288 18.9452 6.81221 18.6528 6.3623 18.002C5.77843 17.1711 5.21725 16.7668 4.56543 16.7666C4.11743 16.7666 3.66699 16.9683 3.66699 17.2383C3.66712 17.3732 3.75655 17.4848 4.02637 17.5078C4.54311 17.5749 4.81264 17.9342 5.05957 18.541C5.68755 20.046 6.56395 20.8535 8.04688 20.8535C8.41722 20.8484 8.78327 20.7727 9.125 20.6299V22.4277C9.125 23.0337 8.54057 23.4389 7.93457 23.2139C3.66678 21.6647 0.5 17.5308 0.5 12.5449C0.500042 6.18811 5.61978 1.00025 11.9775 1Z" fill="black" style="fill:black;fill-opacity:1;"/>
  <path d="M15.3916 16.8438C15.046 17.2318 14.7538 17.6688 14.5283 18.1436C14.3163 17.7706 14.0454 17.4657 13.7305 17.2617C14.323 17.1864 14.8793 17.0435 15.3916 16.8438Z" fill="black" style="fill:black;fill-opacity:1;"/>
  <path d="M23 20.5C23 22.433 21.433 24 19.5 24C17.567 24 16 22.433 16 20.5C16 18.567 17.567 17 19.5 17C21.433 17 23 18.567 23 20.5Z" fill="black" style="fill:black;fill-opacity:1;"/>
</svg>
