<svg width="1024" height="1024" viewBox="0 0 1024 1024" fill="none" xmlns="http://www.w3.org/2000/svg">
<path d="M512.191 102C741.006 102 926.998 288.766 927 517.617C927 563.916 919.45 607.928 905.836 648.75C872.077 622.003 829.416 606 783 606C758.793 606 735.605 610.354 714.164 618.305C742.483 586.279 758.81 545.294 758.812 499.02C758.812 457.008 745.076 415.752 719.156 385.008C729.704 357.54 728.105 300.899 716.766 279.082C684.438 275.05 639.939 292.016 614.883 314.66C585.799 305.769 553.437 300.915 513.844 300.914C474.208 300.914 441.825 305.75 411.117 315.434C385.232 292.037 341.56 275.05 309.234 279.082C297.104 302.517 295.491 359.138 306 385.816C281.736 414.904 267.188 458.592 267.188 499.02C267.193 598.478 342.393 675.266 449.121 688.23C439.407 696.328 428.901 708.415 415.16 722.121C396.548 740.733 383.606 748.031 363.41 748.031C343.184 748.028 326.24 737.5 310.043 714.07C289.024 684.161 268.821 669.604 245.355 669.598C229.227 669.598 213.012 676.858 213.012 686.578C213.016 691.434 216.236 695.454 225.949 696.281C244.552 698.697 254.255 711.632 263.145 733.477C285.752 787.655 317.302 816.725 370.688 816.727C384.02 816.541 397.198 813.817 409.5 808.676V873.398C409.5 895.214 388.461 909.799 366.645 901.699C213.004 845.931 99 697.107 99 517.617C99.0015 288.772 283.312 102.009 512.191 102Z" fill="white" style="fill:white;fill-opacity:1;"/>
<path d="M635.098 672.375C622.655 686.346 612.135 702.075 604.02 719.168C596.386 705.742 586.635 694.764 575.297 687.422C596.63 684.712 616.656 679.567 635.098 672.375Z" fill="white" style="fill:white;fill-opacity:1;"/>
</svg>
